<?xml version="1.0" encoding="utf-8"?>
<!-- Generator: Adobe Illustrator 27.8.1, SVG Export Plug-In . SVG Version: 6.00 Build 0)  -->
<svg version="1.1" id="Layer_1" xmlns="http://www.w3.org/2000/svg" xmlns:xlink="http://www.w3.org/1999/xlink" x="0px" y="0px"
	 viewBox="0 0 200 200" style="enable-background:new 0 0 200 200;" xml:space="preserve">
<style type="text/css">
	.st0{fill:#3B3B3B;}
</style>
<g>
	<path class="st0" d="M128.8,92.2l-1.6,13c-0.3,2.2-2.1,3.8-4.3,3.8h-21v54.2c-2.2,0.2-4.5,0.3-6.7,0.3c-5.1,0-10-0.5-14.8-1.5v-53
		H64.2c-1.5,0-2.7-1.2-2.7-2.7V90c0-1.5,1.2-2.7,2.7-2.7h16.2V63c0-14.9,12.1-27,26.9-27h18.8c1.5,0,2.7,1.2,2.7,2.7v16.2
		c0,1.5-1.2,2.7-2.7,2.7h-13.5c-5.9,0-10.8,4.8-10.8,10.8v18.9h22.6C127.1,87.3,129.1,89.6,128.8,92.2z"/>
	<path class="st0" d="M176.8-0.3H23.3C10.5-0.3,0.1,10.1,0.1,22.9v153.5c0,12.8,10.4,23.2,23.2,23.2h153.5
		c12.8,0,23.2-10.4,23.2-23.2V22.9C200.1,10.1,189.6-0.3,176.8-0.3z M190.8,176.4c0,7.7-6.3,13.9-13.9,13.9H23.3
		c-7.7,0-13.9-6.3-13.9-13.9V22.9C9.4,15.3,15.6,9,23.3,9h153.5c7.7,0,13.9,6.3,13.9,13.9V176.4z"/>
</g>
</svg>
