<svg xmlns="http://www.w3.org/2000/svg" xmlns:xlink="http://www.w3.org/1999/xlink" viewBox="0,0,256,256" width="400px" height="400px"><g fill="none" fill-rule="none" stroke="none" stroke-width="none" stroke-linecap="none" stroke-linejoin="none" stroke-miterlimit="10" stroke-dasharray="" stroke-dashoffset="0" font-family="none" font-weight="none" font-size="none" text-anchor="none" style="mix-blend-mode: normal"><g transform="scale(2.56,2.56)"><path d="M24.278,19.663c0.15,-2.983 1.186,-5.851 3.298,-7.962c2.112,-2.112 4.982,-3.474 7.962,-3.298c8.337,0.492 20.311,0.595 29.854,0c7.163,-0.447 13.082,5.82 12.999,12.999c-0.205,17.714 -0.163,44.755 0,58.376c0.068,5.688 -4.619,10.59 -10.299,10.299c-11.1,-0.569 -25.425,-0.708 -32.954,0c-5.967,0.561 -10.467,-4.873 -10.859,-10.859c-0.914,-13.931 -0.866,-42.347 -0.001,-59.555z" fill="none" fill-rule="nonzero" stroke="#333333" stroke-width="4" stroke-linecap="round" stroke-linejoin="round"></path><path d="M63.776,41.656c1.363,0.101 1.743,0.216 3.143,0.344c1.193,-5.455 1.72,-12.603 1.442,-21.793c-10.884,-1.822 -24.85,-1.648 -33.395,0.019c0.233,10.805 0.878,17.35 1.72,21.864c1.575,-0.209 2.152,-0.38 3.737,-0.513" fill="none" fill-rule="nonzero" stroke="#333333" stroke-width="2" stroke-linecap="round" stroke-linejoin="round"></path><path d="M38.986,51.629l18.027,0.091" fill="none" fill-rule="nonzero" stroke="#333333" stroke-width="2" stroke-linecap="round" stroke-linejoin="round"></path><path d="M39.447,57.23l9.309,-0.282" fill="none" fill-rule="nonzero" stroke="#333333" stroke-width="2" stroke-linecap="round" stroke-linejoin="round"></path><path d="M39.404,63.395l13.983,-0.424" fill="none" fill-rule="nonzero" stroke="#060000" stroke-width="2" stroke-linecap="round" stroke-linejoin="round"></path><path d="M39.362,69.943l5.267,-0.16" fill="none" fill-rule="nonzero" stroke="#060000" stroke-width="2" stroke-linecap="round" stroke-linejoin="round"></path><path d="M53.245,56.626l9.849,0.072" fill="none" fill-rule="nonzero" stroke="#333333" stroke-width="2" stroke-linecap="round" stroke-linejoin="round"></path><path d="M57.835,62.825l5.216,0.038" fill="none" fill-rule="nonzero" stroke="#060000" stroke-width="2" stroke-linecap="round" stroke-linejoin="round"></path><path d="M49.849,69.315l13.16,0.095" fill="none" fill-rule="nonzero" stroke="#060000" stroke-width="2" stroke-linecap="round" stroke-linejoin="round"></path><path d="M33.326,12.188c0.449,-0.322 1.074,-0.219 1.395,0.23c0.321,0.449 0.218,1.074 -0.23,1.395c-0.449,0.322 -1.074,0.218 -1.395,-0.23c-0.321,-0.448 -0.218,-1.073 0.23,-1.395z" fill="#333333" fill-rule="evenodd" stroke="none" stroke-width="1" stroke-linecap="butt" stroke-linejoin="miter"></path><path d="M71.418,42.187c0.449,-0.322 1.074,-0.218 1.395,0.23c0.321,0.449 0.218,1.074 -0.23,1.395c-0.449,0.322 -1.074,0.219 -1.395,-0.23c-0.322,-0.449 -0.219,-1.074 0.23,-1.395z" fill="#333333" fill-rule="evenodd" stroke="none" stroke-width="1" stroke-linecap="butt" stroke-linejoin="miter"></path><path d="M25,79c16,-1 34,-3 53,-1" fill="none" fill-rule="nonzero" stroke="#333333" stroke-width="2" stroke-linecap="round" stroke-linejoin="round"></path><path d="M23.142,69.653l3.6,-2.402" fill="none" fill-rule="nonzero" stroke="#333333" stroke-width="2" stroke-linecap="round" stroke-linejoin="round"></path><path d="M24,44l5,4.167" fill="none" fill-rule="nonzero" stroke="#333333" stroke-width="2" stroke-linecap="round" stroke-linejoin="round"></path><path d="M23.96,39.255l6,5" fill="none" fill-rule="nonzero" stroke="#333333" stroke-width="2" stroke-linecap="round" stroke-linejoin="round"></path><path d="M52.001,79.796c0,0 -2.621,0.847 -2,3c0.621,2.152 3.566,1.301 4,0c1,-3 -2,-3 -2,-3z" fill="none" fill-rule="nonzero" stroke="#333333" stroke-width="2" stroke-linecap="round" stroke-linejoin="round"></path><path d="M29.418,18.621c0.449,-0.322 1.074,-0.218 1.395,0.23c0.321,0.448 0.218,1.074 -0.23,1.395c-0.449,0.322 -1.074,0.219 -1.395,-0.23c-0.322,-0.448 -0.219,-1.073 0.23,-1.395z" fill="#333333" fill-rule="evenodd" stroke="none" stroke-width="1" stroke-linecap="butt" stroke-linejoin="miter"></path><rect x="41" y="38" width="22" height="7" fill="none" fill-rule="nonzero" stroke="#333333" stroke-width="2" stroke-linecap="round" stroke-linejoin="round"></rect><path d="M77.827,68.198l-2.698,-2.908" fill="none" fill-rule="nonzero" stroke="#333333" stroke-width="2" stroke-linecap="round" stroke-linejoin="round"></path><path d="M78.126,61.699l-2.941,-0.699" fill="none" fill-rule="nonzero" stroke="#333333" stroke-width="2" stroke-linecap="round" stroke-linejoin="round"></path><path d="M77.185,23.339l-2.919,0.787" fill="none" fill-rule="nonzero" stroke="#333333" stroke-width="2" stroke-linecap="round" stroke-linejoin="round"></path><path d="M77.185,18.339l-2.919,0.787" fill="none" fill-rule="nonzero" stroke="#333333" stroke-width="2" stroke-linecap="round" stroke-linejoin="round"></path><path d="M74.902,14.783l-2.353,1.898" fill="none" fill-rule="nonzero" stroke="#333333" stroke-width="2" stroke-linecap="round" stroke-linejoin="round"></path><path d="M73.583,77.198l-1.583,-2.193" fill="none" fill-rule="nonzero" stroke="#333333" stroke-width="2" stroke-linecap="round" stroke-linejoin="round"></path><path d="M77.627,74.198l-3.109,-3.154" fill="none" fill-rule="nonzero" stroke="#333333" stroke-width="2" stroke-linecap="round" stroke-linejoin="round"></path><path d="M59,89l2,-3" fill="none" fill-rule="nonzero" stroke="#333333" stroke-width="2" stroke-linecap="round" stroke-linejoin="round"></path><path d="M62,89l3,-4" fill="none" fill-rule="nonzero" stroke="#333333" stroke-width="2" stroke-linecap="round" stroke-linejoin="round"></path><path d="M66,90l3,-3" fill="none" fill-rule="nonzero" stroke="#333333" stroke-width="2" stroke-linecap="round" stroke-linejoin="round"></path><path d="M74,88l-1,-3" fill="none" fill-rule="nonzero" stroke="#333333" stroke-width="2" stroke-linecap="round" stroke-linejoin="round"></path><path d="M30,88l2,-3" fill="none" fill-rule="nonzero" stroke="#333333" stroke-width="2" stroke-linecap="round" stroke-linejoin="round"></path><path d="M34,90l2,-4" fill="none" fill-rule="nonzero" stroke="#333333" stroke-width="2" stroke-linecap="round" stroke-linejoin="round"></path><path d="M36,33l9,-9l8,9l8,-5l7,6" fill="none" fill-rule="nonzero" stroke="#333333" stroke-width="2" stroke-linecap="round" stroke-linejoin="round"></path></g></g></svg>