<?xml version="1.0" encoding="utf-8"?>
<!-- Generator: Adobe Illustrator 27.8.1, SVG Export Plug-In . SVG Version: 6.00 Build 0)  -->
<svg version="1.1" id="Layer_1" xmlns="http://www.w3.org/2000/svg" xmlns:xlink="http://www.w3.org/1999/xlink" x="0px" y="0px"
	 viewBox="0 0 200 200" style="enable-background:new 0 0 200 200;" xml:space="preserve">
<style type="text/css">
	.st0{fill:#3B3B3B;}
</style>
<g>
	<path class="st0" d="M126.5,48.8H73.9c-13.6,0-24.5,11-24.5,24.5V126c0,13.6,11,24.5,24.5,24.5h52.6c13.6,0,24.5-11,24.5-24.5V73.4
		C151,59.8,140,48.8,126.5,48.8z M142.2,124.2c0,9.7-7.9,17.5-17.5,17.5H75.6c-9.7,0-17.5-7.9-17.5-17.5V75.1
		c0-9.7,7.9-17.5,17.5-17.5h49.1c9.7,0,17.5,7.9,17.5,17.5V124.2z"/>
	<path class="st0" d="M100.2,73.4c-14.5,0-26.3,11.8-26.3,26.3c0,14.5,11.8,26.3,26.3,26.3s26.3-11.8,26.3-26.3
		C126.5,85.2,114.7,73.4,100.2,73.4z M100.2,117.2c-9.7,0-17.5-7.9-17.5-17.5s7.9-17.5,17.5-17.5s17.5,7.9,17.5,17.5
		S109.8,117.2,100.2,117.2z"/>
	<circle class="st0" cx="128.2" cy="71.6" r="5.3"/>
	<path class="st0" d="M176.8-0.3H23.3C10.5-0.3,0.1,10.1,0.1,22.9v153.5c0,12.8,10.4,23.2,23.2,23.2h153.5
		c12.8,0,23.2-10.4,23.2-23.2V22.9C200.1,10.1,189.6-0.3,176.8-0.3z M190.8,176.4c0,7.7-6.3,13.9-13.9,13.9H23.3
		c-7.7,0-13.9-6.3-13.9-13.9V22.9C9.4,15.3,15.6,9,23.3,9h153.5c7.7,0,13.9,6.3,13.9,13.9V176.4z"/>
</g>
</svg>
