<?xml version="1.0" encoding="utf-8"?>
<!-- Generator: Adobe Illustrator 27.8.1, SVG Export Plug-In . SVG Version: 6.00 Build 0)  -->
<svg version="1.1" id="Layer_1" xmlns="http://www.w3.org/2000/svg" xmlns:xlink="http://www.w3.org/1999/xlink" x="0px" y="0px"
	 viewBox="0 0 200 200" style="enable-background:new 0 0 200 200;" xml:space="preserve">
<style type="text/css">
	.st0{fill:#3B3B3B;}
</style>
<g>
	<path class="st0" d="M76.8,159.3c1.9-1.8,9.8-9.9,13.9-26.8l3.1-12.8c2.9,3.1,7,5.1,11.3,6.1c17.4,4.3,34.2-14.3,38.5-32.1
		c6.1-25-6.6-47-27.7-52.2c-24.3-6-53,5.9-60,34.5c-2.5,10-1.6,25.2,12,32.4c1.4,0.7,3.1,0,3.5-1.6l1.9-7.7c0.2-0.9-0.1-1.8-0.8-2.4
		c-4.8-4.4-6-11.6-4.3-18.3c4.7-19.3,24.6-27.2,41.5-23.1c14.7,3.6,23.6,18.6,19.4,35.4c-3,12.1-11.3,25.4-23.4,22.4
		c-7.2-1.8-8-8.8-6.1-16.8l4.4-18.1c1.1-4.7-1.7-9.4-6.4-10.5c-4.7-1.1-12,2.2-14.4,11.8c-1.4,5.6-0.2,10.2,1.9,13.1L76.2,129
		c-4.1,16.7-1,27.5-0.1,30.1"/>
	<path class="st0" d="M176.8-0.3H23.3C10.5-0.3,0.1,10.1,0.1,22.9v153.5c0,12.8,10.4,23.2,23.2,23.2h153.5
		c12.8,0,23.2-10.4,23.2-23.2V22.9C200.1,10.1,189.6-0.3,176.8-0.3z M190.8,176.4c0,7.7-6.3,13.9-13.9,13.9H23.3
		c-7.7,0-13.9-6.3-13.9-13.9V22.9C9.4,15.3,15.6,9,23.3,9h153.5c7.7,0,13.9,6.3,13.9,13.9V176.4z"/>
</g>
</svg>
