<?xml version="1.0" encoding="utf-8"?>
<!-- Generator: Adobe Illustrator 27.8.1, SVG Export Plug-In . SVG Version: 6.00 Build 0)  -->
<svg version="1.1" id="Layer_1" xmlns="http://www.w3.org/2000/svg" xmlns:xlink="http://www.w3.org/1999/xlink" x="0px" y="0px"
	 viewBox="0 0 526 138" style="enable-background:new 0 0 526 138;" xml:space="preserve">
<style type="text/css">
	.st0{fill:#333333;}
</style>
<g>
	<path class="st0" d="M66,0.4L0.5,65.9L66,131.3h157.3c0.1,0.1,0.3,0.2,0.4,0.3c5.6,4,12.6,5.9,21,5.9c6.3,0,11.8-1.3,16.3-3.8
		c4.6-2.6,8-6.1,10.5-10.6c2.4-4.5,3.6-9.6,3.6-15.3V44.5h-13v9c-2.1-2.9-5-5.3-8.8-7.2c-3.7-1.9-8-2.9-12.8-2.9
		c-5.4,0-10.4,1.3-14.9,4s-8,6.4-10.6,11.2s-3.9,10.4-3.9,16.6c0,6.3,1.3,11.9,3.9,16.8c2.6,4.9,6.1,8.8,10.6,11.5
		c4.5,2.8,9.4,4.1,14.9,4.1c4.7,0,9-1,12.7-3s6.7-4.5,8.9-7.4v10.4c0,6-1.6,10.6-4.8,13.8c-3.2,3.2-7.4,4.7-12.6,4.7
		c-4.4,0-8.3-1-11.5-3c-1.8-1.1-3.3-2.5-4.4-4.1h-1.7h-12.2h-144L17.5,65.9l53.4-53.4H227h48v-12h-48L66,0.4L66,0.4z M259.4,86.9
		c-1.8,3.2-4.1,5.6-7,7.3c-2.9,1.7-6,2.5-9.3,2.5c-3.2,0-6.3-0.8-9.2-2.5s-5.2-4.2-7-7.4c-1.8-3.2-2.7-7-2.7-11.3s0.9-8,2.7-11.1
		s4.1-5.5,7-7.1s6-2.4,9.3-2.4s6.4,0.8,9.3,2.5c2.9,1.7,5.2,4.1,7,7.2c1.8,3.2,2.7,6.9,2.7,11.2C262.1,79.9,261.2,83.7,259.4,86.9z"
		/>
	<polygon class="st0" points="125.2,106.8 125.2,38.8 146.1,38.8 146.1,28.3 91.3,28.3 91.3,38.8 112.3,38.8 112.3,106.8 	"/>
	<path class="st0" d="M205.2,106.8V44.5h-13v9c-2.2-2.9-5.1-5.3-8.8-7.2s-7.9-2.9-12.8-2.9c-5.4,0-10.4,1.3-14.9,4s-8,6.4-10.6,11.2
		s-3.9,10.4-3.9,16.6c0,6.3,1.3,11.9,3.9,16.8c2.6,4.9,6.1,8.8,10.6,11.5c4.4,2.8,9.3,4.1,14.7,4.1c4.8,0,9.1-1,12.9-2.9
		c3.8-2,6.7-4.4,8.9-7.3v9.3h13V106.8z M189.6,86.9c-1.8,3.2-4.1,5.6-7,7.3c-2.9,1.7-6,2.5-9.3,2.5c-3.2,0-6.3-0.8-9.2-2.5
		s-5.2-4.2-7-7.4c-1.8-3.2-2.7-7-2.7-11.3s0.9-8,2.7-11.1s4.1-5.5,7-7.1s6-2.4,9.3-2.4s6.4,0.8,9.3,2.5c2.9,1.7,5.2,4.1,7,7.2
		c1.8,3.2,2.7,6.9,2.7,11.2C192.2,79.9,191.3,83.7,189.6,86.9z"/>
	<path class="st0" d="M373.8,46.6c-3.9-2-8.3-3.1-13.2-3.1c-4.6,0-8.9,1.1-12.9,3.3s-6.9,5.2-8.8,9c-2.1-4-5.1-7-9-9.2
		c-3.9-2.1-8.4-3.2-13.3-3.2c-3.7,0-7.2,0.7-10.4,2.1c-3.2,1.4-5.9,3.4-8,6v-7.1h-12.9v62.3h12.9V72c0-5.6,1.4-9.9,4.2-12.8
		c2.8-3,6.7-4.5,11.5-4.5s8.6,1.5,11.4,4.5s4.2,7.3,4.2,12.8v34.8h12.8V72c0-5.6,1.4-9.9,4.2-12.8c2.8-3,6.6-4.5,11.5-4.5
		c4.8,0,8.6,1.5,11.4,4.5s4.2,7.3,4.2,12.8v34.8h12.8V70.1c0-5.7-1.1-10.5-3.3-14.5C380.8,51.6,377.7,48.6,373.8,46.6z"/>
	<path class="st0" d="M442.6,53.6c-2.2-2.9-5.1-5.3-8.8-7.2c-3.7-1.9-7.9-2.9-12.8-2.9c-5.4,0-10.4,1.3-14.9,4s-8,6.4-10.6,11.2
		s-3.9,10.4-3.9,16.6c0,6.3,1.3,11.9,3.9,16.8c2.6,4.9,6.1,8.8,10.6,11.5c4.4,2.8,9.3,4.1,14.7,4.1c4.8,0,9.1-1,12.9-2.9
		c3.8-2,6.7-4.4,8.9-7.3v9.3h13V44.5h-13L442.6,53.6L442.6,53.6z M440,86.9c-1.8,3.2-4.1,5.6-7,7.3c-2.9,1.7-6,2.5-9.3,2.5
		c-3.2,0-6.3-0.8-9.2-2.5c-2.9-1.7-5.2-4.2-7-7.4c-1.8-3.2-2.7-7-2.7-11.3s0.9-8,2.7-11.1c1.8-3.1,4.1-5.5,7-7.1s6-2.4,9.3-2.4
		s6.4,0.8,9.3,2.5s5.2,4.1,7,7.2c1.8,3.2,2.7,6.9,2.7,11.2C442.6,79.9,441.7,83.7,440,86.9z"/>
	<path class="st0" d="M512.5,44.5v9c-2.1-2.9-5-5.3-8.8-7.2c-3.7-1.9-8-2.9-12.8-2.9c-5.4,0-10.4,1.3-14.9,4s-8,6.4-10.6,11.2
		s-3.9,10.4-3.9,16.6c0,6.3,1.3,11.9,3.9,16.8s6.1,8.8,10.6,11.5c4.5,2.8,9.4,4.1,14.9,4.1c4.7,0,9-1,12.7-3s6.7-4.5,8.9-7.4v10.4
		c0,6-1.6,10.6-4.8,13.8c-3.2,3.2-7.4,4.7-12.6,4.7c-4.4,0-8.3-1-11.5-3c-1.8-1.1-3.3-2.5-4.4-4.1h-13.9c1.4,5,4.3,9.1,8.7,12.3
		c5.6,4,12.6,5.9,21,5.9c6.3,0,11.8-1.3,16.3-3.8c4.6-2.6,8-6.1,10.5-10.6c2.4-4.5,3.6-9.6,3.6-15.3v-63H512.5z M509.8,86.9
		c-1.8,3.2-4.1,5.6-7,7.3c-2.9,1.7-6,2.5-9.3,2.5c-3.2,0-6.3-0.8-9.2-2.5c-2.9-1.7-5.2-4.2-7-7.4c-1.8-3.2-2.7-7-2.7-11.3
		s0.9-8,2.7-11.1c1.8-3.1,4.1-5.5,7-7.1s6-2.4,9.3-2.4s6.4,0.8,9.3,2.5s5.2,4.1,7,7.2c1.8,3.2,2.7,6.9,2.7,11.2
		C512.5,79.9,511.6,83.7,509.8,86.9z"/>
	<circle class="st0" cx="62.9" cy="65.9" r="9.3"/>
</g>
</svg>
