<?xml version="1.0" encoding="utf-8"?>
<!-- Generator: Adobe Illustrator 27.8.1, SVG Export Plug-In . SVG Version: 6.00 Build 0)  -->
<svg version="1.1" id="Layer_1" xmlns="http://www.w3.org/2000/svg" xmlns:xlink="http://www.w3.org/1999/xlink" x="0px" y="0px"
	 viewBox="0 0 200 200" style="enable-background:new 0 0 200 200;" xml:space="preserve">
<style type="text/css">
	.st0{fill:#3B3B3B;}
</style>
<g>
	<path class="st0" d="M176.8-0.3H23.3C10.5-0.3,0.1,10.1,0.1,22.9v153.5c0,12.8,10.4,23.2,23.2,23.2h153.5
		c12.8,0,23.2-10.4,23.2-23.2V22.9C200.1,10.1,189.6-0.3,176.8-0.3z M190.8,176.4c0,7.7-6.3,13.9-13.9,13.9H23.3
		c-7.7,0-13.9-6.3-13.9-13.9V22.9C9.4,15.3,15.6,9,23.3,9h153.5c7.7,0,13.9,6.3,13.9,13.9V176.4z"/>
	<path class="st0" d="M114,90.8l39.2-41.9h-14.9l-30.8,32.9L84,48.8H43.3l41.2,57.6l-41.2,44.1h14.9L91,115.5l25.1,35.1h40.7
		L114,90.8z M64.3,59.6h14.2l57.4,80.1h-14.2L64.3,59.6z"/>
</g>
</svg>
